<svg viewBox="0 0 6.827 6.827" xmlns="http://www.w3.org/2000/svg" shape-rendering="geometricPrecision" text-rendering="geometricPrecision" image-rendering="optimizeQuality" fill-rule="evenodd" clip-rule="evenodd">
	<path d="M3.243 4.733a7.1 7.1 0 01-.004-.185c0-.243.034-.452.103-.628.05-.133.132-.266.244-.402.082-.099.231-.242.444-.43.215-.19.353-.34.418-.453a.72.72 0 00.096-.367.86.86 0 00-.281-.634.956.956 0 00-.69-.273.928.928 0 00-.66.247c-.177.165-.291.423-.347.774l-.635-.076c.058-.47.228-.83.51-1.079.283-.25.656-.374 1.12-.374.493 0 .886.134 1.179.402.293.268.44.591.44.972 0 .22-.052.422-.156.607-.103.185-.303.412-.603.677-.202.179-.333.31-.395.395a.88.88 0 00-.137.292c-.03.11-.047.288-.052.535h-.594zm-.038 1.24V5.27h.704v.704h-.704z" fill-rule="nonzero" />
	<path fill="none" d="M0 0h6.827v6.827H0z" />
</svg>
